<svg xmlns="http://www.w3.org/2000/svg" viewBox="0 0 850 1100" width="850" height="1100">
<rect width="850" height="1100" fill="white"/>
<rect x="28" y="28" width="794" height="1044" rx="26" ry="26" fill="none" stroke="black" stroke-width="5" stroke-linecap="round" stroke-linejoin="round"/><rect x="40" y="40" width="770" height="1020" rx="20" ry="20" fill="none" stroke="black" stroke-width="3" stroke-linecap="round" stroke-linejoin="round"/><polygon points="66.0,44.0 71.8,58.0 86.9,59.2 75.4,69.1 78.9,83.8 66.0,75.9 53.1,83.8 56.6,69.1 45.1,59.2 60.2,58.0" fill="none" stroke="black" stroke-width="3" stroke-linecap="round" stroke-linejoin="round"/><polygon points="784.0,44.0 789.8,58.0 804.9,59.2 793.4,69.1 796.9,83.8 784.0,75.9 771.1,83.8 774.6,69.1 763.1,59.2 778.2,58.0" fill="none" stroke="black" stroke-width="3" stroke-linecap="round" stroke-linejoin="round"/><polygon points="66.0,1012.0 71.8,1026.0 86.9,1027.2 75.4,1037.1 78.9,1051.8 66.0,1043.9 53.1,1051.8 56.6,1037.1 45.1,1027.2 60.2,1026.0" fill="none" stroke="black" stroke-width="3" stroke-linecap="round" stroke-linejoin="round"/><polygon points="784.0,1012.0 789.8,1026.0 804.9,1027.2 793.4,1037.1 796.9,1051.8 784.0,1043.9 771.1,1051.8 774.6,1037.1 763.1,1027.2 778.2,1026.0" fill="none" stroke="black" stroke-width="3" stroke-linecap="round" stroke-linejoin="round"/>
<text x="425.0" y="120" text-anchor="middle" font-family="Arial Black, Arial, sans-serif" font-size="62" font-weight="900" fill="white" stroke="black" stroke-width="3" paint-order="stroke" letter-spacing="2">K-POP DEMON HUNTERS</text>
<g transform="rotate(-22 425.0 470)"><polygon points="355.0,390.0 341.0,596.0 369.0,596.0" fill="none" stroke="black" stroke-width="5" stroke-linecap="round" stroke-linejoin="round"/><line x1="355.0" y1="404.0" x2="355.0" y2="590.0" fill="none" stroke="black" stroke-width="3" stroke-linecap="round" stroke-linejoin="round"/><rect x="317.0" y="596.0" width="76.0" height="16.0" rx="6.0" ry="6.0" fill="none" stroke="black" stroke-width="5" stroke-linecap="round" stroke-linejoin="round"/><rect x="344.0" y="612.0" width="22.0" height="70.0" rx="7.0" ry="7.0" fill="none" stroke="black" stroke-width="5" stroke-linecap="round" stroke-linejoin="round"/><line x1="344.0" y1="628.0" x2="366.0" y2="628.0" fill="none" stroke="black" stroke-width="3" stroke-linecap="round" stroke-linejoin="round"/><line x1="344.0" y1="644.0" x2="366.0" y2="644.0" fill="none" stroke="black" stroke-width="3" stroke-linecap="round" stroke-linejoin="round"/><circle cx="355.0" cy="690.0" r="13.0" fill="none" stroke="black" stroke-width="5" stroke-linecap="round" stroke-linejoin="round"/><polygon points="321.0,441.0 323.4,446.7 329.6,447.2 324.9,451.3 326.3,457.3 321.0,454.1 315.7,457.3 317.1,451.3 312.4,447.2 318.6,446.7" fill="none" stroke="black" stroke-width="3" stroke-linecap="round" stroke-linejoin="round"/><polygon points="385.0,493.0 386.9,497.5 391.7,497.8 388.0,501.0 389.1,505.7 385.0,503.1 380.9,505.7 382.0,501.0 378.3,497.8 383.1,497.5" fill="none" stroke="black" stroke-width="3" stroke-linecap="round" stroke-linejoin="round"/></g><g transform="rotate(22 425.0 470)"><circle cx="495.0" cy="430" r="57.2" fill="none" stroke="black" stroke-width="5" stroke-linecap="round" stroke-linejoin="round"/><path d="M 455.4 403.6 A 57.2 57.2 0 0 0 455.4 456.4" fill="none" stroke="black" stroke-width="3" stroke-linecap="round" stroke-linejoin="round"/><path d="M 495.0 372.8 L 495.0 487.2" fill="none" stroke="black" stroke-width="3" stroke-linecap="round" stroke-linejoin="round"/><line x1="495.0" y1="487.2" x2="495.0" y2="606.0" fill="none" stroke="black" stroke-width="8" stroke-linecap="round" stroke-linejoin="round"/><rect x="475.2" y="601.6" width="39.6" height="48.400000000000006" rx="13.200000000000001" ry="13.200000000000001" fill="none" stroke="black" stroke-width="5" stroke-linecap="round" stroke-linejoin="round"/></g><polygon points="425.0,220.0 492.6,357.0 643.7,378.9 534.4,485.5 560.2,636.1 425.0,565.0 289.8,636.1 315.6,485.5 206.3,378.9 357.4,357.0" fill="none" stroke="black" stroke-width="5" stroke-linecap="round" stroke-linejoin="round"/><polygon points="425.0,220.0 492.6,357.0 643.7,378.9 534.4,485.5 560.2,636.1 425.0,565.0 289.8,636.1 315.6,485.5 206.3,378.9 357.4,357.0" fill="none" stroke="black" stroke-width="5" stroke-linecap="round" stroke-linejoin="round"/><ellipse cx="170" cy="360" rx="15.400000000000002" ry="11.76" fill="none" stroke="black" stroke-width="5" stroke-linecap="round" stroke-linejoin="round"/><line x1="184.0" y1="360" x2="184.0" y2="309.6" fill="none" stroke="black" stroke-width="5" stroke-linecap="round" stroke-linejoin="round"/><path d="M 184.0 309.6 q 25.2 5.6000000000000005 14.0 25.2" fill="none" stroke="black" stroke-width="5" stroke-linecap="round" stroke-linejoin="round"/><ellipse cx="690" cy="380" rx="13.200000000000001" ry="10.08" fill="none" stroke="black" stroke-width="5" stroke-linecap="round" stroke-linejoin="round"/><line x1="702.0" y1="380" x2="702.0" y2="336.8" fill="none" stroke="black" stroke-width="5" stroke-linecap="round" stroke-linejoin="round"/><path d="M 702.0 336.8 q 21.6 4.800000000000001 12.0 21.6" fill="none" stroke="black" stroke-width="5" stroke-linecap="round" stroke-linejoin="round"/><ellipse cx="210" cy="720" rx="12.100000000000001" ry="9.24" fill="none" stroke="black" stroke-width="5" stroke-linecap="round" stroke-linejoin="round"/><line x1="221.0" y1="720" x2="221.0" y2="680.4" fill="none" stroke="black" stroke-width="5" stroke-linecap="round" stroke-linejoin="round"/><path d="M 221.0 680.4 q 19.8 4.4 11.0 19.8" fill="none" stroke="black" stroke-width="5" stroke-linecap="round" stroke-linejoin="round"/><ellipse cx="660" cy="720" rx="14.3" ry="10.92" fill="none" stroke="black" stroke-width="5" stroke-linecap="round" stroke-linejoin="round"/><line x1="673.0" y1="720" x2="673.0" y2="673.2" fill="none" stroke="black" stroke-width="5" stroke-linecap="round" stroke-linejoin="round"/><path d="M 673.0 673.2 q 23.400000000000002 5.2 13.0 23.400000000000002" fill="none" stroke="black" stroke-width="5" stroke-linecap="round" stroke-linejoin="round"/><path d="M 425.0 836.0 C 373.0 792.0, 403.0 760.0, 425.0 790.0 C 447.0 760.0, 477.0 792.0, 425.0 836.0 Z" fill="none" stroke="black" stroke-width="5" stroke-linecap="round" stroke-linejoin="round"/><rect x="175.0" y="850" width="500" height="110" rx="26" ry="26" fill="none" stroke="black" stroke-width="5" stroke-linecap="round" stroke-linejoin="round"/><text x="425.0" y="905" text-anchor="middle" font-family="Arial Black, Arial, sans-serif" font-size="34" font-weight="900" fill="white" stroke="black" stroke-width="2" paint-order="stroke">A COLORING BOOK</text><text x="425.0" y="945" text-anchor="middle" font-family="Arial, sans-serif" font-size="22" fill="black">This book belongs to: _______________</text>
<text x="425.0" y="1066" text-anchor="middle" font-family="Arial, sans-serif" font-size="20" fill="black" opacity="0.65">Color me in!  •  Ages 4+</text>
</svg>