<svg xmlns="http://www.w3.org/2000/svg" viewBox="0 0 850 1100" width="850" height="1100">
<rect width="850" height="1100" fill="white"/>
<rect x="28" y="28" width="794" height="1044" rx="26" ry="26" fill="none" stroke="black" stroke-width="5" stroke-linecap="round" stroke-linejoin="round"/><rect x="40" y="40" width="770" height="1020" rx="20" ry="20" fill="none" stroke="black" stroke-width="3" stroke-linecap="round" stroke-linejoin="round"/><polygon points="66.0,44.0 71.8,58.0 86.9,59.2 75.4,69.1 78.9,83.8 66.0,75.9 53.1,83.8 56.6,69.1 45.1,59.2 60.2,58.0" fill="none" stroke="black" stroke-width="3" stroke-linecap="round" stroke-linejoin="round"/><polygon points="784.0,44.0 789.8,58.0 804.9,59.2 793.4,69.1 796.9,83.8 784.0,75.9 771.1,83.8 774.6,69.1 763.1,59.2 778.2,58.0" fill="none" stroke="black" stroke-width="3" stroke-linecap="round" stroke-linejoin="round"/><polygon points="66.0,1012.0 71.8,1026.0 86.9,1027.2 75.4,1037.1 78.9,1051.8 66.0,1043.9 53.1,1051.8 56.6,1037.1 45.1,1027.2 60.2,1026.0" fill="none" stroke="black" stroke-width="3" stroke-linecap="round" stroke-linejoin="round"/><polygon points="784.0,1012.0 789.8,1026.0 804.9,1027.2 793.4,1037.1 796.9,1051.8 784.0,1043.9 771.1,1051.8 774.6,1037.1 763.1,1027.2 778.2,1026.0" fill="none" stroke="black" stroke-width="3" stroke-linecap="round" stroke-linejoin="round"/>
<text x="425.0" y="120" text-anchor="middle" font-family="Arial Black, Arial, sans-serif" font-size="62" font-weight="900" fill="white" stroke="black" stroke-width="3" paint-order="stroke" letter-spacing="2">DEMON BUDDY</text>
<polygon points="120.0,166.0 126.3,181.3 142.8,182.6 130.3,193.3 134.1,209.4 120.0,200.8 105.9,209.4 109.7,193.3 97.2,182.6 113.7,181.3" fill="none" stroke="black" stroke-width="3" stroke-linecap="round" stroke-linejoin="round"/><ellipse cx="720" cy="200" rx="13.200000000000001" ry="10.08" fill="none" stroke="black" stroke-width="3" stroke-linecap="round" stroke-linejoin="round"/><line x1="732.0" y1="200" x2="732.0" y2="156.8" fill="none" stroke="black" stroke-width="3" stroke-linecap="round" stroke-linejoin="round"/><path d="M 732.0 156.8 q 21.6 4.800000000000001 12.0 21.6" fill="none" stroke="black" stroke-width="3" stroke-linecap="round" stroke-linejoin="round"/><path d="M 150 969.8 C 121.4 945.6, 137.9 928.0, 150 944.5 C 162.1 928.0, 178.6 945.6, 150 969.8 Z" fill="none" stroke="black" stroke-width="3" stroke-linecap="round" stroke-linejoin="round"/><polygon points="710.0,924.0 716.9,940.5 734.7,942.0 721.1,953.6 725.3,971.0 710.0,961.7 694.7,971.0 698.9,953.6 685.3,942.0 703.1,940.5" fill="none" stroke="black" stroke-width="3" stroke-linecap="round" stroke-linejoin="round"/>
<g><ellipse cx="425.0" cy="520.0" rx="120" ry="130" fill="none" stroke="black" stroke-width="8" stroke-linecap="round" stroke-linejoin="round"/><ellipse cx="425.0" cy="540.0" rx="70" ry="80" fill="none" stroke="black" stroke-width="3" stroke-linecap="round" stroke-linejoin="round"/><path d="M 315.0 510.0 q -40 20 -30 70" fill="none" stroke="black" stroke-width="8" stroke-linecap="round" stroke-linejoin="round"/><path d="M 535.0 510.0 q 40 20 30 70" fill="none" stroke="black" stroke-width="8" stroke-linecap="round" stroke-linejoin="round"/><circle cx="287.0" cy="588.0" r="22" fill="none" stroke="black" stroke-width="5" stroke-linecap="round" stroke-linejoin="round"/><circle cx="563.0" cy="588.0" r="22" fill="none" stroke="black" stroke-width="5" stroke-linecap="round" stroke-linejoin="round"/><ellipse cx="375.0" cy="640.0" rx="38" ry="26" fill="none" stroke="black" stroke-width="5" stroke-linecap="round" stroke-linejoin="round"/><ellipse cx="475.0" cy="640.0" rx="38" ry="26" fill="none" stroke="black" stroke-width="5" stroke-linecap="round" stroke-linejoin="round"/><path d="M 543.0 600.0 q 60 30 70 -30" fill="none" stroke="black" stroke-width="8" stroke-linecap="round" stroke-linejoin="round"/><polygon points="613.0,570.0 593.0,550.0 633.0,550.0" fill="none" stroke="black" stroke-width="5" stroke-linecap="round" stroke-linejoin="round"/><circle cx="425.0" cy="340" r="100" fill="none" stroke="black" stroke-width="8" stroke-linecap="round" stroke-linejoin="round"/><path d="M 370.0 262.0 q -35.0 -55.00000000000001 5.0 -90.0" fill="none" stroke="black" stroke-width="5" stroke-linecap="round" stroke-linejoin="round"/><path d="M 480.0 262.0 q 35.0 -55.00000000000001 -5.0 -90.0" fill="none" stroke="black" stroke-width="5" stroke-linecap="round" stroke-linejoin="round"/><path d="M 333.0 315.0 q -55 -10 -70 40 q 45 6 70 -22" fill="none" stroke="black" stroke-width="5" stroke-linecap="round" stroke-linejoin="round"/><path d="M 517.0 315.0 q 55 -10 70 40 q -45 6 -70 -22" fill="none" stroke="black" stroke-width="5" stroke-linecap="round" stroke-linejoin="round"/><ellipse cx="385.0" cy="346" rx="24.0" ry="30" fill="none" stroke="black" stroke-width="5" stroke-linecap="round" stroke-linejoin="round"/><circle cx="388.6" cy="350.5" r="12.6" fill="black"/><circle cx="379.6" cy="339.4" r="4.8" fill="white" stroke="black" stroke-width="3" stroke-linecap="round" stroke-linejoin="round"/><ellipse cx="465.0" cy="346" rx="24.0" ry="30" fill="none" stroke="black" stroke-width="5" stroke-linecap="round" stroke-linejoin="round"/><circle cx="468.6" cy="350.5" r="12.6" fill="black"/><circle cx="459.6" cy="339.4" r="4.8" fill="white" stroke="black" stroke-width="3" stroke-linecap="round" stroke-linejoin="round"/><path d="M 395.0 396 Q 425.0 435.0 455.0 396 Q 425.0 411.0 395.0 396 Z" fill="none" stroke="black" stroke-width="5" stroke-linecap="round" stroke-linejoin="round"/><polygon points="407.0,396 415.0,414 423.0,396" fill="none" stroke="black" stroke-width="3" stroke-linecap="round" stroke-linejoin="round"/><polygon points="443.0,396 435.0,414 427.0,396" fill="none" stroke="black" stroke-width="3" stroke-linecap="round" stroke-linejoin="round"/><circle cx="359.0" cy="384" r="14" fill="none" stroke="black" stroke-width="3" stroke-linecap="round" stroke-linejoin="round"/><circle cx="491.0" cy="384" r="14" fill="none" stroke="black" stroke-width="3" stroke-linecap="round" stroke-linejoin="round"/></g>
<text x="425.0" y="1066" text-anchor="middle" font-family="Arial, sans-serif" font-size="20" fill="black" opacity="0.65">K-Pop Demon Hunters Coloring Book</text>
</svg>